<?xml version="1.0" encoding="utf-8"?>
<!-- Generator: Adobe Illustrator 16.0.0, SVG Export Plug-In . SVG Version: 6.00 Build 0)  -->
<!DOCTYPE svg PUBLIC "-//W3C//DTD SVG 1.1//EN" "http://www.w3.org/Graphics/SVG/1.1/DTD/svg11.dtd">
<svg version="1.1" id="Layer_1" xmlns="http://www.w3.org/2000/svg" xmlns:xlink="http://www.w3.org/1999/xlink" x="0px" y="0px"
	 width="86px" height="46px" viewBox="0 0 86 46" enable-background="new 0 0 86 46" xml:space="preserve">
<g>
	<g>
		<path fill="#9F9E9F" d="M27.305,34.579V30.31c0-1.009,0.011-3.777,0.011-3.777c0.766,0,3.502,0.015,3.502,0.015
			s-0.356,0.368-0.356,0.985v0.988l0.045,0.046c0.767-1.079,1.713-2.019,3.113-2.019c1.173,0,1.804,0.734,1.804,1.697
			c0,1.056-0.812,1.928-1.827,1.928c-1.106,0-0.969-1.193-2.03-1.193c-0.361,0-0.969,0.573-0.969,0.917v4.498
			c0,1.605,0.147,3.199,0.023,3.206c-0.459-0.024-0.918-0.039-1.377-0.039c-0.656,0-1.311,0.03-1.967,0.074
			C27.199,37.627,27.305,35.957,27.305,34.579"/>
		<path fill="#9F9E9F" d="M37.195,34.579V30.31c0-1.009,0.012-3.777,0.012-3.777c0.765,0,3.502,0.015,3.502,0.015
			s-0.356,0.368-0.356,0.985v0.988l0.045,0.046c0.767-1.079,1.714-2.019,3.113-2.019c1.173,0,1.805,0.734,1.805,1.697
			c0,1.056-0.813,1.928-1.828,1.928c-1.106,0-0.969-1.193-2.03-1.193c-0.36,0-0.969,0.573-0.969,0.917v4.498
			c0,1.605,0.147,3.199,0.023,3.206c-0.459-0.024-0.918-0.039-1.378-0.039c-0.656,0-1.311,0.03-1.967,0.074
			C37.089,37.627,37.195,35.957,37.195,34.579"/>
		<path fill="#9F9E9F" d="M46.763,33.523c0,0-0.062-6.038,0.009-6.065c1.028-0.185,1.949-0.525,2.517-0.911h0.946
			c-0.089,0.665-0.18,1.353-0.18,2.386v5.944c0,1.33,0.08,2.734,0.018,2.743c-0.507-0.035-1.021-0.057-1.574-0.057
			c-0.625,0-1.2,0.029-1.771,0.071C46.636,37.642,46.763,36.207,46.763,33.523 M48.657,20.58c0.947,0,1.579,0.459,1.579,1.516
			c0,1.101-1.24,2.11-2.435,2.11c-0.948,0-1.579-0.458-1.579-1.513C46.222,21.59,47.463,20.58,48.657,20.58"/>
		<path fill="#9F9E9F" d="M53.233,34.326c0,0-0.005-13.741,0.056-13.77c1.33-0.179,3.33-0.909,3.33-0.909
			c-0.09,0.665-0.093,2.366-0.093,3.399V27.9c0.857-0.848,1.714-1.353,3.429-1.353c2.526,0,4.736,2.065,4.736,5.094
			c0,3.26-2.256,6.334-5.82,6.334c-1.985,0-3.316-0.413-4.376-0.413c-0.462,0-0.856,0.032-1.24,0.099
			C53.151,37.658,53.233,35.68,53.233,34.326 M56.525,33.523c0,2.203,0.857,3.305,1.94,3.305c1.712,0,2.796-1.422,2.796-3.856
			c0-3.028-1.398-4.635-2.932-4.635c-0.676,0-1.309,0.367-1.805,0.804V33.523z"/>
		<path fill="#9F9E9F" d="M76.872,36.368c-0.743,0.852-1.758,1.608-3.043,1.608c-1.15,0-1.581-0.598-2.009-1.561
			c-1.126,1.032-2.796,1.652-4.171,1.652c-1.466,0-2.414-0.917-2.414-2.455c0-2.318,2.751-3.788,6.677-4.476v-0.803
			c0-1.538-0.723-2.226-1.872-2.226c-1.242,0-1.934,0.787-2.258,1.391c-0.306,0.568-0.519,1.224-0.519,1.224l-1.308-1.79
			c1.558-1.537,3.113-2.385,5.483-2.385c2.501,0,3.63,1.468,3.63,3.878c0,1.376-0.27,2.775-0.27,4.153
			c0,1.147,0.27,1.468,0.722,1.468c0.405,0,0.631-0.138,0.902-0.412L76.872,36.368z M69.655,36.277c1.083,0,2.257-0.598,2.257-3.97
			c-1.669,0.389-3.52,0.757-3.52,2.594C68.393,35.818,68.754,36.277,69.655,36.277"/>
		<path fill="#9F9E9F" d="M81.669,36.874c0.946,0,1.623-0.551,1.623-1.17c0-2.318-5.592-2.136-5.592-5.898
			c0-1.653,1.533-3.258,4.059-3.258c0.644,0,1.288,0.084,1.913,0.227c0.55,0.125,1.097,0.289,1.658,0.348
			c0.093,0.01,0.183,0.02,0.275,0.005c-0.266,1.001-0.109,1.414-0.282,2.678c0,0-1.702-2.25-3.292-2.25
			c-1.108,0-1.625,0.528-1.625,1.078c0,1.768,5.595,1.997,5.595,5.738c0,2.18-1.852,3.604-4.467,3.604
			c-1.467,0-4.099-0.731-4.099-0.731c0.541-1.102,0.129-2.804,0.491-3.354C77.924,33.891,79.589,36.874,81.669,36.874"/>
		<path fill="#9F9E9F" d="M0.376,21.171C0.282,22.794,0,23.252,0,25.124h1.039c0.022-1.398,0.811-2.57,3.339-2.57h1.308v11.198
			c0,2.02-0.185,3.87-0.09,3.868c0.569-0.02,1.223-0.057,1.961-0.057c0.728,0,1.375,0.022,1.939,0.056
			c0.13,0.003-0.065-1.847-0.065-3.867V22.554h1.308c2.525,0,3.314,1.172,3.337,2.57h1.037c0-1.872-0.28-2.33-0.374-3.953H0.376z"/>
		<path fill="#9F9E9F" d="M20.327,26.666c-4.15-0.62-6.84,1.576-7.318,4.892c-0.454,3.133,1.577,5.801,4.926,6.302
			c4.151,0.62,6.838-1.577,7.317-4.892C25.704,29.834,23.673,27.165,20.327,26.666 M19.129,36.679c-1.564,0-2.833-1.997-2.833-4.46
			c0-2.463,1.269-4.461,2.833-4.461c1.565,0,2.834,1.998,2.834,4.461C21.964,34.683,20.695,36.679,19.129,36.679"/>
		<path fill="#9F9E9F" d="M77.663,23.432c-9.825-8.691-28.902-9.525-28.902-9.525c-0.724-0.101-3.351-2.226-8.546-2.25
			c-2.664-0.013-5.18,0.626-7.878,0.549c-1.25-0.037-3.17-0.399-3.541-0.453c3.726,0.034,5.491-0.271,8.123-1.06
			c2.201-0.661,4.528-0.984,6.807-0.647c1.069,0.159,2.138,0.418,3.178,0.75c-0.642-0.962-1.264-2.041-2.3-3.235
			C39.96,2.329,33.13-0.681,25.148,0.131C15.822,1.081,8.164,6.876,4.509,14.709c0,0,4.2-1.25,7.413,1.085
			c2.569,1.867,9.096,8.002,18.225,7.701c9.961-0.327,13.751-4.188,16.133-5.921c2.93-2.131,12.201-0.348,18.829,1.979
			c7.598,2.664,11.79,7.217,11.79,7.217C78.262,25.482,77.663,23.432,77.663,23.432"/>
		<path fill="#9F9E9F" d="M16.185,42.547l-0.059,0.215l-0.029,0.126l-0.069,0.004c-0.103-0.09-0.152-0.125-0.26-0.16
			c-0.076-0.025-0.151-0.04-0.228-0.05c-0.173-0.02-0.259-0.024-0.703-0.03l-0.022,0.626L14.81,44.93
			c0,0.455,0.027,0.73,0.103,0.945l-0.135-0.01h-0.396l-0.162,0.01c0.021-0.1,0.032-0.176,0.038-0.225
			c0.032-0.22,0.038-0.265,0.038-0.727l0.005-1.646c0-0.051,0-0.15-0.005-0.306c-0.005-0.07-0.005-0.181-0.011-0.32
			c-0.158,0-0.276,0.005-0.357,0.005c-0.374,0.005-0.52,0.024-0.683,0.085c-0.104,0.04-0.151,0.07-0.249,0.154l-0.07-0.004
			l0.011-0.11l0.032-0.231l0.016-0.17l0.228,0.006c0.503,0.009,0.953,0.02,1.342,0.02c0.406,0,0.888-0.01,1.445-0.02l0.245-0.006
			L16.185,42.547z"/>
		<path fill="#9F9E9F" d="M19.693,46c-1.089,0-1.858-0.76-1.858-1.847c0-1.091,0.861-1.897,2.026-1.897
			c1.169,0,1.921,0.711,1.921,1.807C21.783,45.19,20.905,46,19.693,46 M19.817,42.542c-0.845,0-1.387,0.595-1.387,1.521
			c0,0.976,0.569,1.652,1.387,1.652c0.829,0,1.37-0.601,1.37-1.512C21.187,43.227,20.619,42.542,19.817,42.542"/>
		<path fill="#9F9E9F" d="M27.145,45.875l-0.141,0.006l-0.412,0.009l-0.228,0.015c-0.027-0.04-0.049-0.069-0.065-0.09
			c-0.011-0.015-0.031-0.054-0.07-0.116c-0.027-0.049-0.065-0.114-0.113-0.189c-0.255-0.4-0.444-0.661-0.759-1.056
			c-0.172-0.22-0.265-0.28-0.411-0.28h-0.053l0.032-0.125l0.021-0.121c0.26-0.004,0.358-0.015,0.493-0.064
			c0.26-0.091,0.417-0.331,0.417-0.622c0-0.385-0.271-0.62-0.725-0.62c-0.098,0-0.185,0.005-0.384,0.03
			c-0.012,0.21-0.017,0.26-0.017,0.641l-0.004,1.637c0,0.455,0.032,0.73,0.108,0.945l-0.141-0.01h-0.395l-0.152,0.01
			c0.06-0.355,0.07-0.475,0.07-0.952l0.005-1.646c0-0.246-0.011-0.421-0.038-0.521c-0.027-0.105-0.109-0.155-0.266-0.155h-0.054
			l0.103-0.211l0.434,0.011l0.514-0.015c0.141-0.006,0.265-0.006,0.385-0.006c0.46,0,0.628,0.041,0.813,0.176
			c0.178,0.135,0.276,0.345,0.276,0.59c0,0.21-0.076,0.406-0.217,0.546c-0.118,0.115-0.27,0.21-0.53,0.336l0.125,0.155l0.547,0.74
			c0.26,0.352,0.438,0.577,0.606,0.732c0.086,0.08,0.124,0.11,0.232,0.185L27.145,45.875z"/>
		<path fill="#9F9E9F" d="M32.229,45.875l-0.14,0.006l-0.411,0.009l-0.228,0.015c-0.028-0.04-0.049-0.069-0.065-0.09
			c-0.011-0.015-0.032-0.054-0.07-0.116c-0.027-0.049-0.064-0.114-0.114-0.189c-0.254-0.4-0.444-0.661-0.757-1.056
			c-0.173-0.22-0.266-0.28-0.413-0.28h-0.054l0.032-0.125l0.021-0.121c0.261-0.004,0.357-0.015,0.493-0.064
			c0.26-0.091,0.417-0.331,0.417-0.622c0-0.385-0.271-0.62-0.726-0.62c-0.097,0-0.185,0.005-0.385,0.03
			c-0.011,0.21-0.016,0.26-0.016,0.641l-0.006,1.637c0,0.455,0.034,0.73,0.109,0.945l-0.141-0.01h-0.396l-0.152,0.01
			c0.06-0.355,0.07-0.475,0.07-0.952l0.006-1.646c0-0.246-0.012-0.421-0.038-0.521c-0.028-0.105-0.109-0.155-0.266-0.155h-0.054
			l0.104-0.211l0.432,0.011l0.515-0.015c0.141-0.006,0.266-0.006,0.385-0.006c0.46,0,0.628,0.041,0.812,0.176
			c0.179,0.135,0.276,0.345,0.276,0.59c0,0.21-0.076,0.406-0.217,0.546c-0.119,0.115-0.271,0.21-0.53,0.336l0.125,0.155l0.546,0.74
			c0.26,0.352,0.439,0.577,0.606,0.732c0.087,0.08,0.125,0.11,0.233,0.185L32.229,45.875z"/>
		<path fill="#9F9E9F" d="M36.529,45.52l-0.048,0.196l-0.038,0.18c-0.097-0.005-0.168-0.01-0.211-0.01
			c-0.021,0-0.239-0.005-0.655-0.011l-0.726-0.01l-0.536,0.01c0.016-0.1,0.027-0.176,0.032-0.225
			c0.033-0.22,0.039-0.265,0.039-0.727l0.005-1.646c0-0.246-0.01-0.421-0.038-0.521c-0.027-0.105-0.108-0.155-0.265-0.155h-0.054
			l0.103-0.211l0.439,0.005h0.752c0.612,0,0.671-0.005,1.034-0.016l-0.069,0.161l-0.071,0.205l-0.038,0.126l-0.066,0.01
			c-0.097-0.1-0.146-0.13-0.275-0.165c-0.146-0.041-0.325-0.061-0.526-0.061c-0.086,0-0.232,0.005-0.395,0.015L34.9,43.278v0.596
			h0.232h0.12h0.292c0.228,0,0.325-0.01,0.585-0.031l-0.016,0.105l-0.006,0.155l0.011,0.105c-0.107-0.01-0.189-0.015-0.243-0.015
			c-0.184-0.01-0.357-0.015-0.531-0.015c-0.146,0-0.233,0-0.449,0.01v0.751c0,0.06,0.005,0.135,0.011,0.23
			c0.011,0.18,0.033,0.255,0.097,0.321c0.087,0.08,0.211,0.105,0.525,0.105c0.2,0,0.357-0.01,0.504-0.035
			c0.07-0.01,0.146-0.031,0.216-0.06c0.098-0.041,0.152-0.075,0.261-0.17l0.069,0.029L36.529,45.52z"/>
		<path fill="#9F9E9F" d="M42.249,42.612c-0.017,0.12-0.027,0.24-0.027,0.365c0,0.101-0.005,0.301-0.005,0.601l-0.005,1.411
			c0,0.081,0,0.181,0.005,0.306c0.016,0.26,0.021,0.355,0.049,0.635h-0.206l-0.223,0.005c-0.206-0.291-0.292-0.4-0.471-0.611
			l-1.597-1.867l-0.434-0.521l0.011,0.255l-0.005,1.672c0,0.416,0.043,0.792,0.125,1.011l-0.142-0.01h-0.308l-0.157,0.01
			c0.022-0.1,0.033-0.176,0.038-0.225c0.016-0.115,0.032-0.234,0.032-0.36v-0.43l0.005-1.573c0-0.244-0.011-0.43-0.038-0.53
			c-0.028-0.105-0.109-0.155-0.265-0.155h-0.054l0.103-0.211l0.136,0.005h0.503l0.277-0.009c0.189,0.299,0.271,0.41,0.481,0.66
			l1.436,1.707l0.303,0.355l-0.016-0.355l0.006-1.182c0-0.501-0.049-0.946-0.137-1.181l0.13,0.005h0.33l0.157-0.005
			C42.265,42.492,42.253,42.562,42.249,42.612"/>
		<path fill="#9F9E9F" d="M47.598,42.547l-0.059,0.215l-0.027,0.126l-0.07,0.004c-0.104-0.09-0.152-0.125-0.26-0.16
			c-0.076-0.025-0.152-0.04-0.228-0.05c-0.173-0.02-0.26-0.024-0.704-0.03l-0.021,0.626l-0.005,1.652
			c0,0.455,0.026,0.73,0.103,0.945l-0.135-0.01h-0.396l-0.163,0.01c0.021-0.1,0.033-0.176,0.038-0.225
			c0.033-0.22,0.038-0.265,0.038-0.727l0.006-1.646c0-0.051,0-0.15-0.006-0.306c-0.005-0.07-0.005-0.181-0.01-0.32
			c-0.157,0-0.276,0.005-0.357,0.005c-0.374,0.005-0.52,0.024-0.682,0.085c-0.104,0.04-0.151,0.07-0.25,0.154l-0.071-0.004
			l0.011-0.11l0.033-0.231l0.015-0.17l0.229,0.006c0.504,0.009,0.952,0.02,1.343,0.02c0.407,0,0.888-0.01,1.446-0.02l0.243-0.006
			L47.598,42.547z"/>
		<path fill="#9F9E9F" d="M55.819,45.875l-0.141,0.006l-0.412,0.009l-0.227,0.015c-0.026-0.04-0.049-0.069-0.066-0.09
			c-0.011-0.015-0.032-0.054-0.07-0.116c-0.027-0.049-0.065-0.114-0.113-0.189c-0.255-0.4-0.445-0.661-0.758-1.056
			c-0.172-0.22-0.267-0.28-0.412-0.28h-0.053l0.032-0.125l0.021-0.121c0.26-0.004,0.357-0.015,0.493-0.064
			c0.26-0.091,0.417-0.331,0.417-0.622c0-0.385-0.27-0.62-0.726-0.62c-0.096,0-0.184,0.005-0.384,0.03
			c-0.011,0.21-0.017,0.26-0.017,0.641l-0.004,1.637c0,0.455,0.032,0.73,0.109,0.945l-0.142-0.01h-0.395l-0.152,0.01
			c0.06-0.355,0.07-0.475,0.07-0.952l0.005-1.646c0-0.246-0.012-0.421-0.038-0.521c-0.027-0.105-0.109-0.155-0.266-0.155h-0.054
			l0.103-0.211l0.433,0.011l0.515-0.015c0.141-0.006,0.266-0.006,0.384-0.006c0.461,0,0.629,0.041,0.812,0.176
			c0.179,0.135,0.277,0.345,0.277,0.59c0,0.21-0.077,0.406-0.217,0.546c-0.119,0.115-0.271,0.21-0.531,0.336l0.125,0.155l0.546,0.74
			c0.26,0.352,0.439,0.577,0.606,0.732c0.087,0.08,0.125,0.11,0.234,0.185L55.819,45.875z"/>
		<path fill="#9F9E9F" d="M58.452,45.865h-0.396l-0.152,0.01c0.017-0.1,0.028-0.176,0.033-0.225
			c0.032-0.215,0.038-0.265,0.038-0.727l0.004-1.646c0-0.246-0.011-0.421-0.038-0.521c-0.027-0.105-0.108-0.155-0.265-0.155h-0.055
			l0.103-0.211l0.136,0.005h0.504l0.168-0.009c-0.017,0.164-0.028,0.285-0.033,0.37c-0.005,0.08-0.011,0.26-0.011,0.536
			l-0.005,1.637c0,0.455,0.032,0.73,0.109,0.945L58.452,45.865z"/>
		<path fill="#9F9E9F" d="M63.451,45.425c-0.158,0.175-0.412,0.319-0.672,0.39c-0.173,0.045-0.364,0.06-0.661,0.06h-0.124
			l-0.52-0.01l-0.309,0.01c0.017-0.1,0.028-0.176,0.033-0.225c0.032-0.215,0.038-0.265,0.038-0.727l0.005-1.646
			c0-0.246-0.011-0.421-0.038-0.521c-0.028-0.105-0.109-0.155-0.266-0.155h-0.054l0.103-0.211l0.434,0.011l0.515-0.015
			c0.189-0.006,0.346-0.006,0.481-0.006c0.347,0,0.547,0.051,0.715,0.176c0.173,0.135,0.277,0.345,0.277,0.58
			c0,0.202-0.076,0.376-0.222,0.521c-0.108,0.105-0.201,0.166-0.455,0.291v0.01c0.287,0.005,0.405,0.03,0.562,0.115
			c0.267,0.145,0.413,0.39,0.413,0.686C63.705,45.009,63.619,45.24,63.451,45.425 M62.265,44.143c-0.092,0-0.168,0.006-0.353,0.016
			l0.038-0.146l0.022-0.121c0.259,0,0.351-0.015,0.492-0.065c0.254-0.089,0.412-0.319,0.412-0.595c0-0.375-0.276-0.611-0.726-0.611
			c-0.097,0-0.184,0.005-0.384,0.03l-0.016,0.641l-0.006,1.637c0,0.08,0.006,0.169,0.011,0.27c0.005,0.176,0.031,0.255,0.097,0.315
			c0.076,0.075,0.211,0.105,0.434,0.105c0.525,0,0.872-0.295,0.872-0.751C63.158,44.398,62.838,44.143,62.265,44.143"/>
		<path fill="#9F9E9F" d="M69,45.865h-0.347l-0.237,0.016c-0.017-0.096-0.028-0.165-0.039-0.211
			c-0.032-0.16-0.086-0.315-0.195-0.605l-0.184-0.495l-0.33-0.01h-0.645l-0.378,0.01l-0.185,0.455
			c-0.103,0.26-0.156,0.471-0.156,0.62c0,0.075,0.004,0.125,0.038,0.23l-0.169-0.01h-0.373l-0.146,0.01l-0.022-0.03
			c0.059-0.101,0.103-0.175,0.13-0.225c0.038-0.065,0.086-0.16,0.152-0.286c0.065-0.129,0.113-0.235,0.146-0.31l0.899-2.042
			c0.13-0.29,0.156-0.375,0.227-0.625l0.113-0.016l0.239-0.035l0.119-0.02c0.054,0.21,0.076,0.29,0.168,0.51l0.897,2.208
			c0.071,0.179,0.185,0.415,0.315,0.655c0.048,0.09,0.07,0.125,0.129,0.215L69,45.865z M67.349,42.842l-0.59,1.436l0.319,0.01h0.525
			l0.282-0.01L67.349,42.842z"/>
		<path fill="#9F9E9F" d="M71.854,45.99c-0.064,0-0.135-0.005-0.211-0.01c-0.221-0.02-0.324-0.04-0.589-0.129l0.06-0.176l0.064-0.23
			l0.033-0.125l0.076-0.016c0.097,0.14,0.146,0.196,0.249,0.256c0.135,0.084,0.324,0.135,0.487,0.135
			c0.438,0,0.763-0.27,0.763-0.625c0-0.14-0.049-0.275-0.141-0.381c-0.113-0.129-0.26-0.23-0.589-0.395
			c-0.493-0.245-0.564-0.291-0.71-0.426c-0.162-0.155-0.254-0.371-0.254-0.6c0-0.596,0.509-0.996,1.277-0.996
			c0.065,0,0.13,0.004,0.195,0.01c0.212,0.015,0.325,0.04,0.601,0.125l-0.06,0.14l-0.08,0.235l-0.027,0.105l-0.071,0.009
			c-0.194-0.245-0.39-0.335-0.709-0.335c-0.4,0-0.665,0.216-0.665,0.536c0,0.149,0.065,0.285,0.184,0.385
			c0.124,0.1,0.254,0.18,0.606,0.355c0.444,0.219,0.579,0.311,0.726,0.48c0.13,0.155,0.195,0.345,0.195,0.55
			C73.263,45.52,72.678,45.99,71.854,45.99"/>
	</g>
</g>
</svg>
