<?xml version="1.0" encoding="utf-8"?>
<!-- Generator: Adobe Illustrator 16.0.0, SVG Export Plug-In . SVG Version: 6.00 Build 0)  -->
<!DOCTYPE svg PUBLIC "-//W3C//DTD SVG 1.1//EN" "http://www.w3.org/Graphics/SVG/1.1/DTD/svg11.dtd">
<svg version="1.1" id="Layer_1" xmlns="http://www.w3.org/2000/svg" xmlns:xlink="http://www.w3.org/1999/xlink" x="0px" y="0px"
	 width="109px" height="57px" viewBox="0 0 109 57" enable-background="new 0 0 109 57" xml:space="preserve">
<g>
	<g>
		<path fill="#FFFFFF" d="M34.607,42.847v-5.29c0-1.25,0.014-4.681,0.014-4.681c0.971,0,4.439,0.019,4.439,0.019
			s-0.452,0.457-0.452,1.221v1.225l0.058,0.057c0.972-1.337,2.172-2.502,3.945-2.502c1.487,0,2.287,0.909,2.287,2.103
			c0,1.309-1.029,2.39-2.315,2.39c-1.401,0-1.229-1.479-2.573-1.479c-0.457,0-1.229,0.71-1.229,1.137v5.574
			c0,1.989,0.187,3.964,0.029,3.972c-0.582-0.029-1.164-0.048-1.745-0.048c-0.831,0-1.662,0.038-2.493,0.092
			C34.473,46.625,34.607,44.555,34.607,42.847"/>
		<path fill="#FFFFFF" d="M47.142,42.847v-5.29c0-1.25,0.015-4.681,0.015-4.681c0.97,0,4.438,0.019,4.438,0.019
			s-0.451,0.457-0.451,1.221v1.225l0.058,0.057c0.972-1.337,2.172-2.502,3.945-2.502c1.487,0,2.287,0.909,2.287,2.103
			c0,1.309-1.03,2.39-2.316,2.39c-1.401,0-1.229-1.479-2.572-1.479c-0.457,0-1.229,0.71-1.229,1.137v5.574
			c0,1.989,0.187,3.964,0.029,3.972c-0.582-0.029-1.164-0.048-1.746-0.048c-0.831,0-1.662,0.038-2.493,0.092
			C47.008,46.625,47.142,44.555,47.142,42.847"/>
		<path fill="#FFFFFF" d="M59.269,41.539c0,0-0.078-7.481,0.012-7.515c1.304-0.229,2.471-0.651,3.19-1.128h1.199
			c-0.112,0.824-0.228,1.677-0.228,2.957v7.365c0,1.648,0.101,3.388,0.022,3.398c-0.644-0.043-1.295-0.071-1.995-0.071
			c-0.792,0-1.521,0.036-2.244,0.088C59.108,46.644,59.269,44.865,59.269,41.539 M61.669,25.501c1.201,0,2.001,0.568,2.001,1.878
			c0,1.364-1.571,2.614-3.086,2.614c-1.202,0-2.001-0.567-2.001-1.875C58.583,26.752,60.156,25.501,61.669,25.501"/>
		<path fill="#FFFFFF" d="M67.469,42.534c0,0-0.007-17.027,0.071-17.062c1.686-0.222,4.22-1.126,4.22-1.126
			c-0.114,0.824-0.118,2.932-0.118,4.212v6.015c1.086-1.051,2.173-1.677,4.346-1.677c3.201,0,6.003,2.559,6.003,6.312
			c0,4.039-2.859,7.849-7.376,7.849c-2.516,0-4.203-0.512-5.547-0.512c-0.586,0-1.085,0.041-1.572,0.123
			C67.366,46.664,67.469,44.212,67.469,42.534 M71.642,41.539c0,2.73,1.086,4.095,2.459,4.095c2.17,0,3.544-1.763,3.544-4.778
			c0-3.752-1.771-5.743-3.716-5.743c-0.856,0-1.658,0.456-2.287,0.996V41.539z"/>
		<path fill="#FFFFFF" d="M97.43,45.064c-0.941,1.055-2.228,1.992-3.857,1.992c-1.458,0-2.003-0.741-2.546-1.934
			c-1.427,1.279-3.544,2.047-5.287,2.047c-1.858,0-3.059-1.137-3.059-3.042c0-2.872,3.487-4.693,8.463-5.545v-0.995
			c0-1.905-0.916-2.758-2.373-2.758c-1.574,0-2.451,0.975-2.861,1.723c-0.388,0.705-0.657,1.517-0.657,1.517l-1.658-2.218
			c1.975-1.904,3.946-2.956,6.949-2.956c3.171,0,4.601,1.819,4.601,4.805c0,1.706-0.342,3.439-0.342,5.146
			c0,1.422,0.342,1.819,0.915,1.819c0.514,0,0.8-0.17,1.144-0.511L97.43,45.064z M88.284,44.952c1.372,0,2.86-0.74,2.86-4.919
			c-2.116,0.482-4.461,0.938-4.461,3.214C86.683,44.383,87.141,44.952,88.284,44.952"/>
		<path fill="#FFFFFF" d="M103.51,45.691c1.199,0,2.057-0.683,2.057-1.45c0-2.873-7.088-2.646-7.088-7.309
			c0-2.048,1.942-4.038,5.145-4.038c0.815,0,1.632,0.104,2.425,0.281c0.697,0.155,1.391,0.358,2.101,0.432
			c0.118,0.013,0.232,0.024,0.35,0.006c-0.338,1.24-0.139,1.752-0.357,3.319c0,0-2.157-2.788-4.173-2.788
			c-1.404,0-2.061,0.655-2.061,1.336c0,2.191,7.092,2.474,7.092,7.11c0,2.701-2.347,4.465-5.662,4.465
			c-1.859,0-5.195-0.906-5.195-0.906c0.686-1.365,0.163-3.475,0.622-4.156C98.764,41.995,100.875,45.691,103.51,45.691"/>
		<path fill="#FFFFFF" d="M0.476,26.234C0.357,28.245,0,28.812,0,31.132h1.316c0.028-1.732,1.027-3.185,4.231-3.185h1.658v13.876
			c0,2.503-0.234,4.796-0.114,4.792c0.722-0.024,1.55-0.071,2.485-0.071c0.923,0,1.742,0.028,2.458,0.07
			c0.165,0.004-0.083-2.289-0.083-4.792V27.947h1.657c3.201,0,4.201,1.453,4.229,3.185h1.314c0-2.319-0.354-2.887-0.474-4.897H0.476
			z"/>
		<path fill="#FFFFFF" d="M25.762,33.042c-5.26-0.769-8.669,1.953-9.275,6.062c-0.575,3.882,1.999,7.188,6.243,7.809
			c5.262,0.768,8.667-1.954,9.274-6.062C32.578,36.969,30.003,33.661,25.762,33.042 M24.245,45.45c-1.982,0-3.591-2.474-3.591-5.527
			s1.608-5.528,3.591-5.528c1.984,0,3.593,2.475,3.593,5.528S26.229,45.45,24.245,45.45"/>
		<path fill="#FFFFFF" d="M98.432,29.035C85.98,18.267,61.8,17.233,61.8,17.233c-0.918-0.125-4.247-2.758-10.832-2.789
			c-3.376-0.016-6.565,0.776-9.985,0.68c-1.585-0.045-4.018-0.495-4.488-0.562c4.723,0.042,6.96-0.336,10.296-1.314
			c2.789-0.819,5.738-1.219,8.627-0.801c1.354,0.196,2.71,0.518,4.028,0.929c-0.813-1.192-1.603-2.529-2.916-4.009
			C50.647,2.885,41.99-0.843,31.874,0.163C20.053,1.339,10.346,8.52,5.714,18.226c0,0,5.323-1.549,9.396,1.345
			c3.256,2.313,11.528,9.916,23.099,9.543c12.625-0.406,17.429-5.189,20.448-7.337c3.713-2.641,15.464-0.431,23.864,2.453
			c9.63,3.301,14.943,8.943,14.943,8.943C99.192,31.576,98.432,29.035,98.432,29.035"/>
		<path fill="#FFFFFF" d="M20.513,52.721l-0.075,0.267l-0.036,0.156l-0.088,0.006c-0.131-0.112-0.192-0.155-0.33-0.199
			c-0.096-0.031-0.191-0.05-0.288-0.062c-0.22-0.024-0.329-0.03-0.892-0.037l-0.028,0.775l-0.006,2.047
			c0,0.564,0.034,0.905,0.13,1.171l-0.172-0.012h-0.501l-0.205,0.012c0.026-0.124,0.041-0.217,0.048-0.279
			c0.041-0.272,0.048-0.329,0.048-0.9l0.007-2.04c0-0.062,0-0.186-0.007-0.378c-0.007-0.087-0.007-0.224-0.014-0.397
			c-0.2,0-0.35,0.007-0.453,0.007c-0.474,0.006-0.658,0.03-0.865,0.105c-0.131,0.05-0.191,0.086-0.315,0.191l-0.089-0.005
			l0.014-0.136l0.041-0.286l0.021-0.211l0.289,0.008c0.638,0.012,1.207,0.024,1.701,0.024c0.515,0,1.126-0.013,1.832-0.024
			l0.31-0.008L20.513,52.721z"/>
		<path fill="#FFFFFF" d="M24.959,57c-1.38,0-2.354-0.942-2.354-2.289c0-1.352,1.092-2.351,2.567-2.351
			c1.482,0,2.436,0.881,2.436,2.239C27.608,55.997,26.496,57,24.959,57 M25.117,52.715c-1.07,0-1.758,0.737-1.758,1.885
			c0,1.209,0.722,2.047,1.758,2.047c1.051,0,1.736-0.745,1.736-1.874C26.853,53.564,26.132,52.715,25.117,52.715"/>
		<path fill="#FFFFFF" d="M34.404,56.845l-0.179,0.007l-0.521,0.012l-0.288,0.018c-0.034-0.049-0.062-0.085-0.083-0.111
			c-0.014-0.019-0.04-0.067-0.089-0.143c-0.034-0.062-0.083-0.142-0.144-0.235c-0.323-0.496-0.562-0.818-0.962-1.309
			c-0.219-0.273-0.336-0.347-0.521-0.347h-0.067l0.04-0.154l0.027-0.149c0.33-0.005,0.454-0.019,0.625-0.08
			c0.33-0.112,0.528-0.41,0.528-0.771c0-0.477-0.343-0.769-0.919-0.769c-0.124,0-0.234,0.006-0.487,0.038
			c-0.015,0.26-0.021,0.322-0.021,0.794l-0.006,2.028c0,0.564,0.041,0.905,0.137,1.171l-0.179-0.012h-0.5l-0.192,0.012
			c0.075-0.44,0.089-0.588,0.089-1.179l0.007-2.04c0-0.305-0.014-0.521-0.048-0.645c-0.034-0.13-0.138-0.192-0.337-0.192h-0.068
			l0.13-0.262l0.55,0.013l0.651-0.018c0.179-0.008,0.336-0.008,0.487-0.008c0.583,0,0.796,0.051,1.03,0.218
			c0.226,0.167,0.35,0.428,0.35,0.732c0,0.26-0.096,0.503-0.275,0.676c-0.149,0.143-0.342,0.26-0.672,0.416l0.158,0.192l0.693,0.917
			c0.329,0.435,0.556,0.714,0.769,0.907c0.109,0.099,0.157,0.136,0.295,0.229L34.404,56.845z"/>
		<path fill="#FFFFFF" d="M40.848,56.845l-0.178,0.007l-0.521,0.012l-0.288,0.018c-0.035-0.049-0.062-0.085-0.083-0.111
			c-0.014-0.019-0.041-0.067-0.089-0.143c-0.034-0.062-0.082-0.142-0.145-0.235c-0.322-0.496-0.562-0.818-0.96-1.309
			c-0.22-0.273-0.337-0.347-0.522-0.347h-0.068l0.041-0.154l0.027-0.149c0.33-0.005,0.452-0.019,0.625-0.08
			c0.329-0.112,0.528-0.41,0.528-0.771c0-0.477-0.343-0.769-0.92-0.769c-0.123,0-0.233,0.006-0.487,0.038
			c-0.014,0.26-0.021,0.322-0.021,0.794l-0.008,2.028c0,0.564,0.043,0.905,0.139,1.171l-0.179-0.012h-0.501l-0.192,0.012
			c0.075-0.44,0.089-0.588,0.089-1.179l0.008-2.04c0-0.305-0.015-0.521-0.048-0.645c-0.035-0.13-0.139-0.192-0.337-0.192H36.69
			l0.131-0.262l0.548,0.013l0.652-0.018c0.179-0.008,0.337-0.008,0.487-0.008c0.583,0,0.796,0.051,1.029,0.218
			c0.227,0.167,0.351,0.428,0.351,0.732c0,0.26-0.097,0.503-0.275,0.676c-0.15,0.143-0.343,0.26-0.672,0.416l0.158,0.192
			l0.692,0.917c0.33,0.435,0.557,0.714,0.769,0.907c0.11,0.099,0.158,0.136,0.296,0.229L40.848,56.845z"/>
		<path fill="#FFFFFF" d="M46.298,56.405l-0.062,0.243l-0.048,0.223c-0.123-0.007-0.213-0.012-0.268-0.012
			c-0.027,0-0.303-0.006-0.83-0.014l-0.92-0.012l-0.68,0.012c0.02-0.124,0.034-0.217,0.041-0.279c0.042-0.272,0.049-0.329,0.049-0.9
			l0.006-2.04c0-0.305-0.013-0.521-0.048-0.645c-0.034-0.13-0.137-0.192-0.336-0.192h-0.068l0.13-0.262l0.557,0.007h0.953
			c0.775,0,0.851-0.007,1.311-0.02l-0.088,0.2l-0.09,0.254l-0.048,0.156l-0.083,0.012c-0.123-0.124-0.186-0.162-0.35-0.204
			c-0.186-0.051-0.411-0.075-0.666-0.075c-0.109,0-0.295,0.006-0.501,0.018l-0.027,0.75v0.738h0.295h0.151h0.37
			c0.289,0,0.412-0.012,0.741-0.038l-0.02,0.131l-0.008,0.192l0.014,0.13c-0.137-0.012-0.24-0.019-0.309-0.019
			c-0.233-0.012-0.452-0.019-0.673-0.019c-0.186,0-0.295,0-0.569,0.012v0.931c0,0.074,0.007,0.167,0.014,0.285
			c0.014,0.223,0.042,0.316,0.123,0.397c0.11,0.099,0.269,0.13,0.666,0.13c0.254,0,0.453-0.012,0.639-0.043
			c0.089-0.012,0.186-0.038,0.274-0.074c0.124-0.05,0.192-0.093,0.33-0.211l0.088,0.036L46.298,56.405z"/>
		<path fill="#FFFFFF" d="M53.547,52.801c-0.021,0.149-0.035,0.297-0.035,0.453c0,0.125-0.007,0.373-0.007,0.745l-0.007,1.748
			c0,0.1,0,0.224,0.007,0.379c0.021,0.322,0.027,0.44,0.062,0.787h-0.261l-0.282,0.007c-0.261-0.36-0.37-0.496-0.597-0.757
			l-2.024-2.314l-0.55-0.645l0.014,0.316l-0.007,2.071c0,0.516,0.055,0.981,0.159,1.253l-0.18-0.012H49.45l-0.199,0.012
			c0.027-0.124,0.041-0.217,0.048-0.279c0.021-0.142,0.041-0.291,0.041-0.446v-0.533l0.007-1.949c0-0.303-0.014-0.533-0.048-0.657
			c-0.035-0.13-0.138-0.192-0.336-0.192h-0.068l0.13-0.262l0.172,0.007h0.638l0.351-0.012c0.24,0.371,0.343,0.508,0.61,0.818
			l1.819,2.115l0.384,0.44l-0.021-0.44l0.008-1.464c0-0.621-0.062-1.172-0.173-1.464l0.165,0.007h0.418l0.199-0.007
			C53.568,52.652,53.553,52.739,53.547,52.801"/>
		<path fill="#FFFFFF" d="M60.328,52.721l-0.074,0.267l-0.035,0.156l-0.089,0.006c-0.132-0.112-0.192-0.155-0.329-0.199
			c-0.097-0.031-0.192-0.05-0.289-0.062c-0.22-0.024-0.329-0.03-0.893-0.037l-0.026,0.775l-0.007,2.047
			c0,0.564,0.033,0.905,0.13,1.171l-0.171-0.012h-0.501l-0.207,0.012c0.027-0.124,0.042-0.217,0.048-0.279
			c0.042-0.272,0.048-0.329,0.048-0.9l0.008-2.04c0-0.062,0-0.186-0.008-0.378c-0.006-0.087-0.006-0.224-0.013-0.397
			c-0.199,0-0.351,0.007-0.453,0.007c-0.474,0.006-0.659,0.03-0.864,0.105c-0.132,0.05-0.192,0.086-0.316,0.191l-0.09-0.005
			l0.014-0.136l0.042-0.286l0.02-0.211l0.289,0.008c0.639,0.012,1.207,0.024,1.702,0.024c0.516,0,1.126-0.013,1.833-0.024
			l0.308-0.008L60.328,52.721z"/>
		<path fill="#FFFFFF" d="M70.748,56.845l-0.179,0.007l-0.521,0.012l-0.288,0.018c-0.033-0.049-0.062-0.085-0.083-0.111
			c-0.014-0.019-0.041-0.067-0.089-0.143c-0.034-0.062-0.082-0.142-0.144-0.235c-0.323-0.496-0.563-0.818-0.961-1.309
			c-0.219-0.273-0.338-0.347-0.522-0.347h-0.067l0.04-0.154l0.027-0.149c0.33-0.005,0.452-0.019,0.625-0.08
			c0.329-0.112,0.528-0.41,0.528-0.771c0-0.477-0.343-0.769-0.92-0.769c-0.122,0-0.233,0.006-0.487,0.038
			c-0.014,0.26-0.021,0.322-0.021,0.794l-0.006,2.028c0,0.564,0.04,0.905,0.138,1.171l-0.18-0.012h-0.5l-0.192,0.012
			c0.075-0.44,0.089-0.588,0.089-1.179l0.007-2.04c0-0.305-0.015-0.521-0.048-0.645c-0.034-0.13-0.138-0.192-0.337-0.192h-0.068
			l0.131-0.262l0.548,0.013l0.652-0.018c0.179-0.008,0.337-0.008,0.487-0.008c0.584,0,0.797,0.051,1.029,0.218
			c0.227,0.167,0.352,0.428,0.352,0.732c0,0.26-0.098,0.503-0.275,0.676c-0.151,0.143-0.343,0.26-0.674,0.416l0.159,0.192
			l0.692,0.917c0.33,0.435,0.557,0.714,0.769,0.907c0.11,0.099,0.158,0.136,0.296,0.229L70.748,56.845z"/>
		<path fill="#FFFFFF" d="M74.083,56.833h-0.501l-0.192,0.012c0.021-0.124,0.035-0.217,0.042-0.279
			c0.04-0.267,0.048-0.329,0.048-0.9l0.006-2.04c0-0.305-0.014-0.521-0.048-0.645c-0.034-0.13-0.137-0.192-0.336-0.192h-0.069
			l0.131-0.262l0.172,0.007h0.639l0.213-0.012c-0.021,0.204-0.035,0.353-0.042,0.458c-0.007,0.099-0.014,0.322-0.014,0.664
			l-0.007,2.028c0,0.564,0.041,0.905,0.138,1.171L74.083,56.833z"/>
		<path fill="#FFFFFF" d="M80.419,56.287c-0.2,0.217-0.522,0.396-0.852,0.483c-0.22,0.056-0.461,0.074-0.838,0.074h-0.157
			l-0.659-0.012l-0.392,0.012c0.021-0.124,0.035-0.217,0.042-0.279c0.041-0.267,0.048-0.329,0.048-0.9l0.007-2.04
			c0-0.305-0.014-0.521-0.048-0.645c-0.035-0.13-0.138-0.192-0.337-0.192h-0.068l0.13-0.262l0.55,0.013l0.652-0.018
			c0.239-0.008,0.438-0.008,0.609-0.008c0.439,0,0.693,0.064,0.906,0.218c0.22,0.167,0.351,0.428,0.351,0.719
			c0,0.25-0.097,0.466-0.281,0.645c-0.138,0.13-0.255,0.206-0.576,0.36v0.013c0.363,0.006,0.514,0.037,0.713,0.143
			c0.338,0.18,0.522,0.484,0.522,0.85C80.742,55.772,80.632,56.058,80.419,56.287 M78.917,54.699c-0.117,0-0.213,0.007-0.447,0.02
			l0.048-0.18l0.028-0.149c0.328,0,0.445-0.018,0.624-0.081c0.322-0.111,0.521-0.396,0.521-0.738c0-0.465-0.35-0.757-0.92-0.757
			c-0.123,0-0.233,0.006-0.486,0.038l-0.021,0.794l-0.008,2.028c0,0.099,0.008,0.21,0.015,0.334
			c0.006,0.217,0.039,0.316,0.123,0.391c0.097,0.093,0.268,0.13,0.55,0.13c0.665,0,1.104-0.366,1.104-0.931
			C80.048,55.015,79.643,54.699,78.917,54.699"/>
		<path fill="#FFFFFF" d="M87.454,56.833h-0.439l-0.301,0.02c-0.021-0.119-0.035-0.205-0.049-0.261
			c-0.04-0.199-0.109-0.391-0.247-0.75l-0.233-0.614l-0.418-0.013h-0.817l-0.479,0.013l-0.234,0.564
			c-0.13,0.322-0.198,0.583-0.198,0.769c0,0.093,0.006,0.155,0.048,0.285l-0.214-0.012h-0.473l-0.185,0.012l-0.028-0.037
			c0.075-0.125,0.13-0.217,0.165-0.279c0.048-0.081,0.109-0.199,0.192-0.354c0.082-0.161,0.144-0.292,0.185-0.384l1.14-2.531
			c0.165-0.36,0.198-0.465,0.288-0.775l0.144-0.019l0.303-0.043l0.15-0.024c0.068,0.26,0.097,0.359,0.214,0.632l1.138,2.736
			c0.09,0.222,0.234,0.514,0.399,0.812c0.062,0.112,0.089,0.155,0.164,0.266L87.454,56.833z M85.361,53.087l-0.748,1.78l0.404,0.013
			h0.666l0.357-0.013L85.361,53.087z"/>
		<path fill="#FFFFFF" d="M91.071,56.988c-0.081,0-0.171-0.006-0.268-0.013c-0.28-0.025-0.411-0.049-0.747-0.161l0.075-0.217
			l0.082-0.286l0.042-0.154l0.096-0.019c0.123,0.173,0.186,0.243,0.315,0.317c0.172,0.105,0.411,0.167,0.618,0.167
			c0.556,0,0.967-0.334,0.967-0.774c0-0.174-0.062-0.341-0.179-0.472c-0.144-0.161-0.329-0.285-0.747-0.489
			c-0.625-0.304-0.715-0.36-0.899-0.528c-0.205-0.192-0.322-0.459-0.322-0.744c0-0.738,0.646-1.234,1.619-1.234
			c0.083,0,0.165,0.005,0.247,0.012c0.269,0.019,0.412,0.049,0.762,0.155l-0.076,0.173l-0.102,0.292l-0.034,0.13l-0.09,0.011
			c-0.246-0.303-0.494-0.415-0.899-0.415c-0.507,0-0.843,0.267-0.843,0.664c0,0.185,0.082,0.354,0.232,0.478
			c0.157,0.124,0.322,0.223,0.769,0.44c0.562,0.272,0.733,0.385,0.92,0.595c0.165,0.192,0.247,0.427,0.247,0.682
			C92.856,56.405,92.115,56.988,91.071,56.988"/>
	</g>
</g>
</svg>
